<?xml version="1.0" encoding="UTF-8" standalone="no"?><!DOCTYPE svg PUBLIC "-//W3C//DTD SVG 1.1//EN" "http://www.w3.org/Graphics/SVG/1.1/DTD/svg11.dtd"><svg width="100%" height="100%" viewBox="0 0 100 100" version="1.1" xmlns="http://www.w3.org/2000/svg" xmlns:xlink="http://www.w3.org/1999/xlink" xml:space="preserve" xmlns:serif="http://www.serif.com/" style="fill-rule:evenodd;clip-rule:evenodd;stroke-linejoin:round;stroke-miterlimit:2;"><rect id="QuadIcons" x="0" y="0" width="100" height="100" style="fill:none;"/><g id="Phoenician"><g id="Button"><path id="Underbutton" d="M96.38170569673,23.523345374695l0,59.540036037736c0,9.353816986837 -7.582552451033,16.936618587568 -16.936131714907,16.936618587568l-58.891085883742,0c-9.353522827596,0 -16.936188151184,-7.582801600732 -16.936188151184,-16.936618587568l0,-59.540036037736c0,-9.353760549125 13.946363497291,-23.905321449734 22.825370106718,-21.583135373357l47.11277840895,0c8.87895017315,-2.322186076376 22.825257234164,12.229374824232 22.825257234164,21.583135373357" style="fill:#6e6e6e;fill-rule:nonzero;"/><path id="Button-Body" serif:id="Button Body" d="M73.556442818938,0.708406154442l-47.11277840895,0c-8.879006609427,-2.322186076376 -22.825370106718,12.22931838652 -22.825370106718,21.583135373357l0,59.540036037736c0,9.353760549125 7.582665323588,16.936618587568 16.936188151184,16.936618587568l58.891085883742,0c9.353522827596,0 16.936131714907,-7.582858038443 16.936131714907,-16.936618587568l0,-59.540036037736c0,-8.678426893608 -12.004560509835,-21.831009802158 -20.82938829321,-21.830558300466c-0.686773056481,0.000056437711 -1.354752832676,0.079746486315 -1.995868940954,0.247422927109Z" style="fill:url(#_Linear1);fill-rule:nonzero;"/><clipPath id="_clip2"><path d="M73.556442818938,0.708406154442l-47.11277840895,0c-8.879006609427,-2.322186076376 -22.825370106718,12.22931838652 -22.825370106718,21.583135373357l0,59.540036037736c0,9.353760549125 7.582665323588,16.936618587568 16.936188151184,16.936618587568l58.891085883742,0c9.353522827596,0 16.936131714907,-7.582858038443 16.936131714907,-16.936618587568l0,-59.540036037736c0,-8.678426893608 -12.004560509835,-21.831009802158 -20.82938829321,-21.830558300466c-0.686773056481,0.000056437711 -1.354752832676,0.079746486315 -1.995868940954,0.247422927109Z" clip-rule="nonzero"/></clipPath><g clip-path="url(#_clip2)"><g id="ShadowsLights"><path d="M62.480972074938,74.923059030163l16.200383560187,30.24887399767l28.059887428348,-17.464195545238l-16.200383560187,-30.24887399767l-28.059887428348,17.464195545238Z" style="fill:url(#_Linear3);"/><path d="M62.480972074938,10.40882513052l28.059887428348,-17.464195545238l16.200383560187,30.24887399767l-28.059887428348,17.464195545238l-16.200383560187,-30.24887399767Z" style="fill:url(#_Linear4);"/><path d="M37.43870580762,74.923059030163l-16.200383560187,30.24887399767l-28.059887428348,-17.464195545238l16.200383560187,-30.24887399767l28.059887428348,17.464195545238Z" style="fill:url(#_Linear5);"/><path d="M37.43870580762,10.40882513052l-28.059887428348,-17.464195545238l-16.200383560187,30.24887399767l28.059887428348,17.464195545238l16.200383560187,-30.24887399767Z" style="fill:url(#_Linear6);"/></g></g><path id="Button-Outline" serif:id="Button Outline" d="M91.346641646644,17.533120047697l0,47.822720569723c0,9.428766267677 -7.711114290352,17.072351283667 -17.223392365534,17.072351283667l-48.246470344081,0c-9.512278075183,0 -17.223335929257,-7.643585015991 -17.223335929257,-17.072351283667l0,-47.822720569723c0,-9.428766267677 7.711057854075,-17.072181970533 17.223335929257,-17.072181970533l48.246470344081,0c9.512278075183,0 17.223392365534,7.643415702856 17.223392365534,17.072181970533" style="fill:#c87ad6;fill-rule:nonzero;"/><path id="Button-Pad" serif:id="Button Pad" d="M26.279321970965,0c-9.353522827596,0 -16.935962406075,7.582632287597 -16.935962406075,16.936449274434l0,47.442386832089c0,9.353760549125 7.582439578479,16.936562149857 16.935962406075,16.936562149857l47.441350414443,0c9.353579263873,0 16.936018842352,-7.582801600732 16.936018842352,-16.936562149857l0,-47.442386832089c0,-9.353816986837 -7.582439578479,-16.936449274434 -16.936018842352,-16.936449274434l-47.441350414443,0Z" style="fill:url(#_Linear7);fill-rule:nonzero;"/></g><path d="M42.087481120131,28.994812452549l20.876020564259,-9.338587265158l0,18.677174530316l-20.876020564259,-9.338587265158Zm28.426312247616,-15.371281424232c-0.001068674425,-0.035802339223 -0.002725119785,-0.071119405776 -0.004862468636,-0.106921744999c-0.000534337213,-0.007494766795 -0.001068674425,-0.015528725446 -0.001603011638,-0.023562684097c-0.002190782572,-0.035802339223 -0.00545023957,-0.071658597632 -0.008656262846,-0.107460936855c-0.0075341547,-0.079153364427 -0.017793429184,-0.157767536998 -0.030243486241,-0.235303325857c-0.094363951769,-0.583459507126 -0.32690750675,-1.133165604082 -0.672623683388,-1.605929023219c-0.02265589782,-0.030464339851 -0.045365229361,-0.060928679702 -0.068555464394,-0.090907746882c-0.001068674425,-0.001024464526 -0.002190782572,-0.002642040093 -0.003206023276,-0.004259615661c-0.048036915425,-0.060982598887 -0.097676842488,-0.120293703022 -0.149454118401,-0.17858034263c-0.025861921096,-0.029439875325 -0.052365046848,-0.058286639609 -0.079829979582,-0.087187323078c-0.026984029243,-0.028361491613 -0.053968058486,-0.056669064041 -0.082020762154,-0.083952171943c-0.027518366456,-0.027283107902 -0.055036732911,-0.054027023948 -0.08308943658,-0.080231748138c-0.001549577917,-0.002102848237 -0.003740360489,-0.003720423805 -0.00587770934,-0.005337999372c-0.023778005967,-0.022484300386 -0.048090349146,-0.04437548973 -0.072883595817,-0.066266679074c-0.035586858368,-0.031596642748 -0.071708053949,-0.062600174455 -0.108951357676,-0.093118433491c-0.028587040881,-0.022969573056 -0.057174081762,-0.045399954256 -0.08688323079,-0.068423446497c-0.063051791102,-0.04814983272 -0.127813461286,-0.095167362543 -0.194178143107,-0.140135963314c-0.033396075796,-0.0224303812 -0.067433356247,-0.04437548973 -0.101417202977,-0.065727487218c-0.038311978153,-0.024101875953 -0.077158293519,-0.047610640864 -0.116004608884,-0.07009494125c-0.019396440822,-0.0112151906 -0.039327218857,-0.0224303812 -0.058777093401,-0.03316029913c-0.393272188571,-0.218157024844 -0.817803104088,-0.362552603818 -1.25264672781,-0.430976050315c-0.023136801311,-0.00377434299 -0.046380470065,-0.007009494125 -0.069036367885,-0.010190726074c-0.020518548969,-0.002642040093 -0.041518001429,-0.005337999372 -0.062036550398,-0.008033958651c-0.044243121214,-0.005337999372 -0.087898471495,-0.010136806888 -0.131660689217,-0.013371958023c-0.021533789673,-0.002102848237 -0.04365535028,-0.003720423805 -0.065776910887,-0.005337999372c-0.035052521155,-0.002102848237 -0.069570705098,-0.004259615661 -0.104623226253,-0.005877191228c-0.053433721273,-0.002156767423 -0.106279671613,-0.003181231949 -0.159179055673,-0.003181231949c-0.064761670183,0 -0.129469906645,0.001617575567 -0.194178143107,0.004798807516c-0.010259274484,0.000539191856 -0.020518548969,0.001078383712 -0.031312160666,0.002156767423c-0.062036550398,0.003181231949 -0.124607438009,0.008519231321 -0.18717832562,0.015474806261c-0.033449509517,0.00377434299 -0.067433356247,0.008033958651 -0.101417202977,0.012293574312c-0.001603011638,0 -0.003206023276,0.000539191856 -0.004328131423,0.000539191856c-0.033449509517,0.004798807516 -0.066364681821,0.009651534218 -0.099226420404,0.01498953359c-0.034037280451,0.005877191228 -0.068555464394,0.011754382456 -0.102539311123,0.018170765539c-0.305854620568,0.05936502332 -0.606900206222,0.15614996143 -0.895495734819,0.291433198043l-0.06043353876,0.028361491613l-33.418998862228,15.223165421452c-1.319011409631,0.619207927164 -2.160539085964,1.936345792434 -2.160539085964,3.383428894944c0,1.44708310251 0.841527676333,2.76470624045 2.160539085964,3.383428894944l31.318893315024,14.23811582015l0,17.896909995834l-27.550266387341,0c-2.085518141296,0 -3.776214516104,1.675970045283 -3.776214516104,3.743393377854c0,2.067369413385 1.690696374808,3.743339458669 3.776214516104,3.743339458669l31.326480903445,0c2.085571575017,0 3.776214516104,-1.675970045283 3.776214516104,-3.743339458669l0,-54.513321082662c0,-0.040115874069 -0.000534337213,-0.080231748138 -0.002137348851,-0.119808430352" style="fill:#e9b8ff;fill-rule:nonzero;"/></g><defs><linearGradient id="_Linear1" x1="0" y1="0" x2="1" y2="0" gradientUnits="userSpaceOnUse" gradientTransform="matrix(92.763383,0,0,92.76574,3.618339,49.614579)"><stop offset="0" style="stop-color:#d43174;stop-opacity:1"/><stop offset="1" style="stop-color:#600039;stop-opacity:1"/></linearGradient><linearGradient id="_Linear3" x1="0" y1="0" x2="1" y2="-0.062585682149" gradientUnits="userSpaceOnUse" gradientTransform="matrix(-28.059887,17.464196,16.200384,30.248874,98.641051,72.5833)"><stop offset="0" style="stop-color:#4e032c;stop-opacity:0"/><stop offset="0.5" style="stop-color:#4e032c;stop-opacity:1"/><stop offset="1" style="stop-color:#4e032c;stop-opacity:0"/></linearGradient><linearGradient id="_Linear4" x1="0" y1="0" x2="1" y2="-0.067460929793" gradientUnits="userSpaceOnUse" gradientTransform="matrix(-16.200384,-30.248874,28.059887,-17.464196,92.711299,31.925601)"><stop offset="0" style="stop-color:#4e032c;stop-opacity:0"/><stop offset="0.5" style="stop-color:#4e032c;stop-opacity:1"/><stop offset="1" style="stop-color:#4e032c;stop-opacity:0"/></linearGradient><linearGradient id="_Linear5" x1="0" y1="0" x2="1" y2="-0.062585682149" gradientUnits="userSpaceOnUse" gradientTransform="matrix(28.059887,17.464196,-16.200384,30.248874,1.278627,72.5833)"><stop offset="0" style="stop-color:#922553;stop-opacity:0"/><stop offset="0.5" style="stop-color:#922553;stop-opacity:1"/><stop offset="1" style="stop-color:#922553;stop-opacity:0"/></linearGradient><linearGradient id="_Linear6" x1="0" y1="0" x2="1" y2="-0.067460929793" gradientUnits="userSpaceOnUse" gradientTransform="matrix(16.200384,-30.248874,-28.059887,-17.464196,7.208379,31.925601)"><stop offset="0" style="stop-color:#922553;stop-opacity:0"/><stop offset="0.5" style="stop-color:#922553;stop-opacity:1"/><stop offset="1" style="stop-color:#922553;stop-opacity:0"/></linearGradient><linearGradient id="_Linear7" x1="0" y1="0" x2="1" y2="0" gradientUnits="userSpaceOnUse" gradientTransform="matrix(81.313343,0,0,81.315409,9.343363,40.657737)"><stop offset="0" style="stop-color:#c87ad6;stop-opacity:1"/><stop offset="1" style="stop-color:#6f317f;stop-opacity:1"/></linearGradient></defs></svg>