<?xml version="1.0" encoding="UTF-8" standalone="no"?><!DOCTYPE svg PUBLIC "-//W3C//DTD SVG 1.1//EN" "http://www.w3.org/Graphics/SVG/1.1/DTD/svg11.dtd"><svg width="100%" height="100%" viewBox="0 0 100 100" version="1.1" xmlns="http://www.w3.org/2000/svg" xmlns:xlink="http://www.w3.org/1999/xlink" xml:space="preserve" xmlns:serif="http://www.serif.com/" style="fill-rule:evenodd;clip-rule:evenodd;stroke-linejoin:round;stroke-miterlimit:2;"><rect id="QuadIcons" x="0" y="0" width="100" height="100" style="fill:none;"/><g id="Old-Hungarian" serif:id="Old Hungarian"><g id="Button"><path id="Underbutton" d="M96.38170569673,23.523345374695l0,59.540036037736c0,9.353816986837 -7.582552451033,16.936618587568 -16.936131714907,16.936618587568l-58.891085883742,0c-9.353522827596,0 -16.936188151184,-7.582801600732 -16.936188151184,-16.936618587568l0,-59.540036037736c0,-9.353760549125 13.946363497291,-23.905321449734 22.825370106718,-21.583135373357l47.11277840895,0c8.87895017315,-2.322186076376 22.825257234164,12.229374824232 22.825257234164,21.583135373357" style="fill:#6e6e6e;fill-rule:nonzero;"/><path id="Button-Body" serif:id="Button Body" d="M73.556442818938,0.708406154442l-47.11277840895,0c-8.879006609427,-2.322186076376 -22.825370106718,12.22931838652 -22.825370106718,21.583135373357l0,59.540036037736c0,9.353760549125 7.582665323588,16.936618587568 16.936188151184,16.936618587568l58.891085883742,0c9.353522827596,0 16.936131714907,-7.582858038443 16.936131714907,-16.936618587568l0,-59.540036037736c0,-8.678426893608 -12.004560509835,-21.831009802158 -20.82938829321,-21.830558300466c-0.686773056481,0.000056437711 -1.354752832676,0.079746486315 -1.995868940954,0.247422927109Z" style="fill:url(#_Linear1);fill-rule:nonzero;"/><clipPath id="_clip2"><path d="M73.556442818938,0.708406154442l-47.11277840895,0c-8.879006609427,-2.322186076376 -22.825370106718,12.22931838652 -22.825370106718,21.583135373357l0,59.540036037736c0,9.353760549125 7.582665323588,16.936618587568 16.936188151184,16.936618587568l58.891085883742,0c9.353522827596,0 16.936131714907,-7.582858038443 16.936131714907,-16.936618587568l0,-59.540036037736c0,-8.678426893608 -12.004560509835,-21.831009802158 -20.82938829321,-21.830558300466c-0.686773056481,0.000056437711 -1.354752832676,0.079746486315 -1.995868940954,0.247422927109Z" clip-rule="nonzero"/></clipPath><g clip-path="url(#_clip2)"><g id="ShadowsLights"><path d="M62.480972074938,74.923059030163l16.200383560187,30.24887399767l28.059887428348,-17.464195545238l-16.200383560187,-30.24887399767l-28.059887428348,17.464195545238Z" style="fill:url(#_Linear3);"/><path d="M62.480972074938,10.40882513052l28.059887428348,-17.464195545238l16.200383560187,30.24887399767l-28.059887428348,17.464195545238l-16.200383560187,-30.24887399767Z" style="fill:url(#_Linear4);"/><path d="M37.43870580762,74.923059030163l-16.200383560187,30.24887399767l-28.059887428348,-17.464195545238l16.200383560187,-30.24887399767l28.059887428348,17.464195545238Z" style="fill:url(#_Linear5);"/><path d="M37.43870580762,10.40882513052l-28.059887428348,-17.464195545238l-16.200383560187,30.24887399767l28.059887428348,17.464195545238l16.200383560187,-30.24887399767Z" style="fill:url(#_Linear6);"/></g></g><path id="Button-Outline" serif:id="Button Outline" d="M91.346641646644,17.533120047697l0,47.822720569723c0,9.428766267677 -7.711114290352,17.072351283667 -17.223392365534,17.072351283667l-48.246470344081,0c-9.512278075183,0 -17.223335929257,-7.643585015991 -17.223335929257,-17.072351283667l0,-47.822720569723c0,-9.428766267677 7.711057854075,-17.072181970533 17.223335929257,-17.072181970533l48.246470344081,0c9.512278075183,0 17.223392365534,7.643415702856 17.223392365534,17.072181970533" style="fill:#e9e3cf;fill-rule:nonzero;"/><path id="Button-Pad" serif:id="Button Pad" d="M26.279321970965,0c-9.353522827596,0 -16.935962406075,7.582632287597 -16.935962406075,16.936449274434l0,47.442386832089c0,9.353760549125 7.582439578479,16.936562149857 16.935962406075,16.936562149857l47.441350414443,0c9.353579263873,0 16.936018842352,-7.582801600732 16.936018842352,-16.936562149857l0,-47.442386832089c0,-9.353816986837 -7.582439578479,-16.936449274434 -16.936018842352,-16.936449274434l-47.441350414443,0Z" style="fill:url(#_Linear7);fill-rule:nonzero;"/></g><g id="Button-Glyph" serif:id="Button Glyph" transform="matrix(75,0,0,75,11.825,63.230469)"><path d="M0.464,0.135c-0.023333333333,-0.018666666667 -0.045333333333,-0.037333333333 -0.066,-0.056c-0.020666666667,-0.018666666667 -0.039666666667,-0.037333333333 -0.057,-0.056l-0.09,0.111l-0.196,-0.088l0.03,-0.075l0.141,0.068l0.062,-0.083c-0.024666666667,-0.036 -0.043666666667,-0.074166666667 -0.057,-0.1145c-0.013333333333,-0.040333333333 -0.02,-0.083833333333 -0.02,-0.1305c0,-0.047333333333 0.006666666667,-0.091166666667 0.02,-0.1315c0.013333333333,-0.040333333333 0.032333333333,-0.078833333333 0.057,-0.1155l-0.062,-0.082l-0.141,0.068l-0.03,-0.076l0.196,-0.087l0.09,0.111c0.017333333333,-0.019333333333 0.036333333333,-0.038333333333 0.057,-0.057c0.020666666667,-0.018666666667 0.042333333333,-0.037 0.065,-0.055l0.094,0c0.023333333333,0.018 0.045,0.036 0.065,0.054c0.02,0.018 0.038666666667,0.036666666667 0.056,0.056l0.087,-0.109l0.198,0.087l-0.032,0.076l-0.14,-0.068l-0.06,0.08c0.025333333333,0.036666666667 0.044666666667,0.0755 0.058,0.1165c0.013333333333,0.041 0.02,0.085166666667 0.02,0.1325c0,0.047333333333 -0.006666666667,0.091333333333 -0.02,0.132c-0.013333333333,0.040666666667 -0.032666666667,0.079333333333 -0.058,0.116l0.06,0.08l0.14,-0.068l0.032,0.075l-0.198,0.088l-0.087,-0.109c-0.017333333333,0.018666666667 -0.036,0.037166666667 -0.056,0.0555c-0.02,0.018333333333 -0.041666666667,0.0365 -0.065,0.0545l-0.093,0Zm0.044,-0.072l0.004,0c0.046,-0.04 0.084,-0.077833333333 0.114,-0.1135c0.03,-0.035666666667 0.0525,-0.072666666667 0.0675,-0.111c0.015,-0.038333333333 0.0225,-0.080833333333 0.0225,-0.1275c-0,-0.047333333333 -0.0075,-0.090166666667 -0.0225,-0.1285c-0.015,-0.038333333333 -0.0375,-0.0755 -0.0675,-0.1115c-0.03,-0.036 -0.068,-0.074 -0.114,-0.114l-0.004,0c-0.045333333333,0.04 -0.083166666667,0.078 -0.1135,0.114c-0.030333333333,0.036 -0.053,0.073166666667 -0.068,0.1115c-0.015,0.038333333333 -0.0225,0.081166666667 -0.0225,0.1285c0,0.046666666667 0.0075,0.089166666667 0.0225,0.1275c0.015,0.038333333333 0.037666666667,0.075333333333 0.068,0.111c0.030333333333,0.035666666667 0.068166666667,0.0735 0.1135,0.1135Z" style="fill:#414170;fill-rule:nonzero;"/></g></g><defs><linearGradient id="_Linear1" x1="0" y1="0" x2="1" y2="0" gradientUnits="userSpaceOnUse" gradientTransform="matrix(92.763383,0,0,92.76574,3.618339,49.614579)"><stop offset="0" style="stop-color:#e0d8b1;stop-opacity:1"/><stop offset="1" style="stop-color:#7d6f32;stop-opacity:1"/></linearGradient><linearGradient id="_Linear3" x1="0" y1="0" x2="1" y2="-0.062585682149" gradientUnits="userSpaceOnUse" gradientTransform="matrix(-28.059887,17.464196,16.200384,30.248874,98.641051,72.5833)"><stop offset="0" style="stop-color:#564625;stop-opacity:0"/><stop offset="0.5" style="stop-color:#564625;stop-opacity:1"/><stop offset="1" style="stop-color:#564625;stop-opacity:0"/></linearGradient><linearGradient id="_Linear4" x1="0" y1="0" x2="1" y2="-0.067460929793" gradientUnits="userSpaceOnUse" gradientTransform="matrix(-16.200384,-30.248874,28.059887,-17.464196,92.711299,31.925601)"><stop offset="0" style="stop-color:#564625;stop-opacity:0"/><stop offset="0.5" style="stop-color:#564625;stop-opacity:1"/><stop offset="1" style="stop-color:#564625;stop-opacity:0"/></linearGradient><linearGradient id="_Linear5" x1="0" y1="0" x2="1" y2="-0.062585682149" gradientUnits="userSpaceOnUse" gradientTransform="matrix(28.059887,17.464196,-16.200384,30.248874,1.278627,72.5833)"><stop offset="0" style="stop-color:#e7e2c8;stop-opacity:0"/><stop offset="0.5" style="stop-color:#e7e2c8;stop-opacity:1"/><stop offset="1" style="stop-color:#e7e2c8;stop-opacity:0"/></linearGradient><linearGradient id="_Linear6" x1="0" y1="0" x2="1" y2="-0.067460929793" gradientUnits="userSpaceOnUse" gradientTransform="matrix(16.200384,-30.248874,-28.059887,-17.464196,7.208379,31.925601)"><stop offset="0" style="stop-color:#e7e2c8;stop-opacity:0"/><stop offset="0.5" style="stop-color:#e7e2c8;stop-opacity:1"/><stop offset="1" style="stop-color:#e7e2c8;stop-opacity:0"/></linearGradient><linearGradient id="_Linear7" x1="0" y1="0" x2="1" y2="0" gradientUnits="userSpaceOnUse" gradientTransform="matrix(81.313343,0,0,81.315409,9.343363,40.657737)"><stop offset="0" style="stop-color:#e9e3cf;stop-opacity:1"/><stop offset="1" style="stop-color:#d1c292;stop-opacity:1"/></linearGradient></defs></svg>