<?xml version="1.0" encoding="UTF-8" standalone="no"?><!DOCTYPE svg PUBLIC "-//W3C//DTD SVG 1.1//EN" "http://www.w3.org/Graphics/SVG/1.1/DTD/svg11.dtd"><svg width="100%" height="100%" viewBox="0 0 100 100" version="1.1" xmlns="http://www.w3.org/2000/svg" xmlns:xlink="http://www.w3.org/1999/xlink" xml:space="preserve" xmlns:serif="http://www.serif.com/" style="fill-rule:evenodd;clip-rule:evenodd;stroke-linejoin:round;stroke-miterlimit:2;"><rect id="QuadIcons" x="0" y="0" width="100" height="100" style="fill:none;"/><g id="Gothic"><g id="Button"><path id="Underbutton" d="M96.38170569673,23.523345374695l0,59.540036037736c0,9.353816986837 -7.582552451033,16.936618587568 -16.936131714907,16.936618587568l-58.891085883742,0c-9.353522827596,0 -16.936188151184,-7.582801600732 -16.936188151184,-16.936618587568l0,-59.540036037736c0,-9.353760549125 13.946363497291,-23.905321449734 22.825370106718,-21.583135373357l47.11277840895,0c8.87895017315,-2.322186076376 22.825257234164,12.229374824232 22.825257234164,21.583135373357" style="fill:#6e6e6e;fill-rule:nonzero;"/><path id="Button-Body" serif:id="Button Body" d="M73.556442818938,0.708406154442l-47.11277840895,0c-8.879006609427,-2.322186076376 -22.825370106718,12.22931838652 -22.825370106718,21.583135373357l0,59.540036037736c0,9.353760549125 7.582665323588,16.936618587568 16.936188151184,16.936618587568l58.891085883742,0c9.353522827596,0 16.936131714907,-7.582858038443 16.936131714907,-16.936618587568l0,-59.540036037736c0,-8.678426893608 -12.004560509835,-21.831009802158 -20.82938829321,-21.830558300466c-0.686773056481,0.000056437711 -1.354752832676,0.079746486315 -1.995868940954,0.247422927109Z" style="fill:url(#_Linear1);fill-rule:nonzero;"/><clipPath id="_clip2"><path d="M73.556442818938,0.708406154442l-47.11277840895,0c-8.879006609427,-2.322186076376 -22.825370106718,12.22931838652 -22.825370106718,21.583135373357l0,59.540036037736c0,9.353760549125 7.582665323588,16.936618587568 16.936188151184,16.936618587568l58.891085883742,0c9.353522827596,0 16.936131714907,-7.582858038443 16.936131714907,-16.936618587568l0,-59.540036037736c0,-8.678426893608 -12.004560509835,-21.831009802158 -20.82938829321,-21.830558300466c-0.686773056481,0.000056437711 -1.354752832676,0.079746486315 -1.995868940954,0.247422927109Z" clip-rule="nonzero"/></clipPath><g clip-path="url(#_clip2)"><g id="ShadowsLights"><path d="M62.480972074938,74.923059030163l16.200383560187,30.24887399767l28.059887428348,-17.464195545238l-16.200383560187,-30.24887399767l-28.059887428348,17.464195545238Z" style="fill:url(#_Linear3);"/><path d="M62.480972074938,10.40882513052l28.059887428348,-17.464195545238l16.200383560187,30.24887399767l-28.059887428348,17.464195545238l-16.200383560187,-30.24887399767Z" style="fill:url(#_Linear4);"/><path d="M37.43870580762,74.923059030163l-16.200383560187,30.24887399767l-28.059887428348,-17.464195545238l16.200383560187,-30.24887399767l28.059887428348,17.464195545238Z" style="fill:url(#_Linear5);"/><path d="M37.43870580762,10.40882513052l-28.059887428348,-17.464195545238l-16.200383560187,30.24887399767l28.059887428348,17.464195545238l16.200383560187,-30.24887399767Z" style="fill:url(#_Linear6);"/></g></g><path id="Button-Outline" serif:id="Button Outline" d="M91.346641646644,17.533120047697l0,47.822720569723c0,9.428766267677 -7.711114290352,17.072351283667 -17.223392365534,17.072351283667l-48.246470344081,0c-9.512278075183,0 -17.223335929257,-7.643585015991 -17.223335929257,-17.072351283667l0,-47.822720569723c0,-9.428766267677 7.711057854075,-17.072181970533 17.223335929257,-17.072181970533l48.246470344081,0c9.512278075183,0 17.223392365534,7.643415702856 17.223392365534,17.072181970533" style="fill:#b79e6e;fill-rule:nonzero;"/><path id="Button-Pad" serif:id="Button Pad" d="M26.279321970965,0c-9.353522827596,0 -16.935962406075,7.582632287597 -16.935962406075,16.936449274434l0,47.442386832089c0,9.353760549125 7.582439578479,16.936562149857 16.935962406075,16.936562149857l47.441350414443,0c9.353579263873,0 16.936018842352,-7.582801600732 16.936018842352,-16.936562149857l0,-47.442386832089c0,-9.353816986837 -7.582439578479,-16.936449274434 -16.936018842352,-16.936449274434l-47.441350414443,0Z" style="fill:url(#_Linear7);fill-rule:nonzero;"/></g><g id="Button-Glyph" serif:id="Button Glyph" transform="matrix(62.5,0,0,62.5,21.008301,62.403061)"><path d="M0.5126953125,-0.046630859375c0.083658854167,-0.008463541667 0.151041666667,-0.03955078125 0.2021484375,-0.09326171875c0.060546875,-0.0634765625 0.0908203125,-0.130859375 0.0908203125,-0.2021484375c0,-0.072591145833 -0.0302734375,-0.140462239583 -0.0908203125,-0.20361328125c-0.033528645833,-0.034505208333 -0.07373046875,-0.0595703125 -0.12060546875,-0.0751953125l0.0439453125,-0.0439453125c0.055013020833,0.0166015625 0.103190104167,0.0419921875 0.14453125,0.076171875c0.080403645833,0.066731770833 0.12060546875,0.14892578125 0.12060546875,0.24658203125c0,0.097981770833 -0.04052734375,0.18017578125 -0.12158203125,0.24658203125c-0.070638020833,0.058268229167 -0.160319010417,0.090983072917 -0.26904296875,0.09814453125l0,0.1435546875l-0.09765625,0.09765625l0,-0.2412109375c-0.108723958333,-0.007161458333 -0.198404947917,-0.039876302083 -0.26904296875,-0.09814453125c-0.0810546875,-0.06640625 -0.12158203125,-0.148600260417 -0.12158203125,-0.24658203125c0,-0.09765625 0.040201822917,-0.179850260417 0.12060546875,-0.24658203125c0.041341145833,-0.0341796875 0.089518229167,-0.0595703125 0.14453125,-0.076171875l0.0439453125,0.0439453125c-0.0478515625,0.015625 -0.088216145833,0.040690104167 -0.12109375,0.0751953125c-0.060221354167,0.063151041667 -0.09033203125,0.131022135417 -0.09033203125,0.20361328125c0,0.0712890625 0.030110677083,0.138671875 0.09033203125,0.2021484375c0.050455729167,0.0537109375 0.118001302083,0.084798177083 0.20263671875,0.09326171875l0,-0.78369140625c0,-0.016276041667 -0.006510416667,-0.033365885417 -0.01953125,-0.05126953125c-0.013020833333,-0.017903645833 -0.030924479167,-0.02685546875 -0.0537109375,-0.02685546875l-0.0244140625,0l0,-0.01953125l0.29296875,0l0,0.01953125l-0.0244140625,0c-0.022786458333,0 -0.040690104167,0.008951822917 -0.0537109375,0.02685546875c-0.013020833333,0.017903645833 -0.01953125,0.034993489583 -0.01953125,0.05126953125l0,0.78369140625Z" style="fill:#ccc;fill-rule:nonzero;"/></g></g><defs><linearGradient id="_Linear1" x1="0" y1="0" x2="1" y2="0" gradientUnits="userSpaceOnUse" gradientTransform="matrix(92.763383,0,0,92.76574,3.618339,49.614579)"><stop offset="0" style="stop-color:#968a32;stop-opacity:1"/><stop offset="1" style="stop-color:#593113;stop-opacity:1"/></linearGradient><linearGradient id="_Linear3" x1="0" y1="0" x2="1" y2="-0.062585682149" gradientUnits="userSpaceOnUse" gradientTransform="matrix(-28.059887,17.464196,16.200384,30.248874,98.641051,72.5833)"><stop offset="0" style="stop-color:#37230d;stop-opacity:0"/><stop offset="0.5" style="stop-color:#37230d;stop-opacity:1"/><stop offset="1" style="stop-color:#37230d;stop-opacity:0"/></linearGradient><linearGradient id="_Linear4" x1="0" y1="0" x2="1" y2="-0.067460929793" gradientUnits="userSpaceOnUse" gradientTransform="matrix(-16.200384,-30.248874,28.059887,-17.464196,92.711299,31.925601)"><stop offset="0" style="stop-color:#37230d;stop-opacity:0"/><stop offset="0.5" style="stop-color:#37230d;stop-opacity:1"/><stop offset="1" style="stop-color:#37230d;stop-opacity:0"/></linearGradient><linearGradient id="_Linear5" x1="0" y1="0" x2="1" y2="-0.062585682149" gradientUnits="userSpaceOnUse" gradientTransform="matrix(28.059887,17.464196,-16.200384,30.248874,1.278627,72.5833)"><stop offset="0" style="stop-color:#9e9356;stop-opacity:0"/><stop offset="0.5" style="stop-color:#9e9356;stop-opacity:1"/><stop offset="1" style="stop-color:#9e9356;stop-opacity:0"/></linearGradient><linearGradient id="_Linear6" x1="0" y1="0" x2="1" y2="-0.067460929793" gradientUnits="userSpaceOnUse" gradientTransform="matrix(16.200384,-30.248874,-28.059887,-17.464196,7.208379,31.925601)"><stop offset="0" style="stop-color:#9e9356;stop-opacity:0"/><stop offset="0.5" style="stop-color:#9e9356;stop-opacity:1"/><stop offset="1" style="stop-color:#9e9356;stop-opacity:0"/></linearGradient><linearGradient id="_Linear7" x1="0" y1="0" x2="1" y2="0" gradientUnits="userSpaceOnUse" gradientTransform="matrix(81.313343,0,0,81.315409,9.343363,40.657737)"><stop offset="0" style="stop-color:#b79e6e;stop-opacity:1"/><stop offset="1" style="stop-color:#8c7000;stop-opacity:1"/></linearGradient></defs></svg>