<?xml version="1.0" encoding="UTF-8" standalone="no"?><!DOCTYPE svg PUBLIC "-//W3C//DTD SVG 1.1//EN" "http://www.w3.org/Graphics/SVG/1.1/DTD/svg11.dtd"><svg width="100%" height="100%" viewBox="0 0 100 100" version="1.1" xmlns="http://www.w3.org/2000/svg" xmlns:xlink="http://www.w3.org/1999/xlink" xml:space="preserve" xmlns:serif="http://www.serif.com/" style="fill-rule:evenodd;clip-rule:evenodd;stroke-linejoin:round;stroke-miterlimit:2;"><rect id="QuadIcons" x="0" y="0" width="100" height="100" style="fill:none;"/><g id="Domains"><g id="Ugaritic"><g id="Button"><path id="Underbutton" d="M96.38170569673,23.523345374695l0,59.540036037736c0,9.353816986837 -7.582552451033,16.936618587568 -16.936131714907,16.936618587568l-58.891085883742,0c-9.353522827596,0 -16.936188151184,-7.582801600732 -16.936188151184,-16.936618587568l0,-59.540036037736c0,-9.353760549125 13.946363497291,-23.905321449734 22.825370106718,-21.583135373357l47.11277840895,0c8.87895017315,-2.322186076376 22.825257234164,12.229374824232 22.825257234164,21.583135373357" style="fill:#6e6e6e;fill-rule:nonzero;"/><path id="Button-Body" serif:id="Button Body" d="M73.556442818938,0.708406154442l-47.11277840895,0c-8.879006609427,-2.322186076376 -22.825370106718,12.22931838652 -22.825370106718,21.583135373357l0,59.540036037736c0,9.353760549125 7.582665323588,16.936618587568 16.936188151184,16.936618587568l58.891085883742,0c9.353522827596,0 16.936131714907,-7.582858038443 16.936131714907,-16.936618587568l0,-59.540036037736c0,-8.678426893608 -12.004560509835,-21.831009802158 -20.82938829321,-21.830558300466c-0.686773056481,0.000056437711 -1.354752832676,0.079746486315 -1.995868940954,0.247422927109Z" style="fill:url(#_Linear1);fill-rule:nonzero;"/><clipPath id="_clip2"><path d="M73.556442818938,0.708406154442l-47.11277840895,0c-8.879006609427,-2.322186076376 -22.825370106718,12.22931838652 -22.825370106718,21.583135373357l0,59.540036037736c0,9.353760549125 7.582665323588,16.936618587568 16.936188151184,16.936618587568l58.891085883742,0c9.353522827596,0 16.936131714907,-7.582858038443 16.936131714907,-16.936618587568l0,-59.540036037736c0,-8.678426893608 -12.004560509835,-21.831009802158 -20.82938829321,-21.830558300466c-0.686773056481,0.000056437711 -1.354752832676,0.079746486315 -1.995868940954,0.247422927109Z" clip-rule="nonzero"/></clipPath><g clip-path="url(#_clip2)"><g id="ShadowsLights"><path d="M62.480972074938,74.923059030163l16.200383560187,30.24887399767l28.059887428348,-17.464195545238l-16.200383560187,-30.24887399767l-28.059887428348,17.464195545238Z" style="fill:url(#_Linear3);"/><path d="M62.480972074938,10.40882513052l28.059887428348,-17.464195545238l16.200383560187,30.24887399767l-28.059887428348,17.464195545238l-16.200383560187,-30.24887399767Z" style="fill:url(#_Linear4);"/><path d="M37.43870580762,74.923059030163l-16.200383560187,30.24887399767l-28.059887428348,-17.464195545238l16.200383560187,-30.24887399767l28.059887428348,17.464195545238Z" style="fill:url(#_Linear5);"/><path d="M37.43870580762,10.40882513052l-28.059887428348,-17.464195545238l-16.200383560187,30.24887399767l28.059887428348,17.464195545238l16.200383560187,-30.24887399767Z" style="fill:url(#_Linear6);"/></g></g><path id="Button-Outline" serif:id="Button Outline" d="M91.346641646644,17.533120047697l0,47.822720569723c0,9.428766267677 -7.711114290352,17.072351283667 -17.223392365534,17.072351283667l-48.246470344081,0c-9.512278075183,0 -17.223335929257,-7.643585015991 -17.223335929257,-17.072351283667l0,-47.822720569723c0,-9.428766267677 7.711057854075,-17.072181970533 17.223335929257,-17.072181970533l48.246470344081,0c9.512278075183,0 17.223392365534,7.643415702856 17.223392365534,17.072181970533" style="fill:#fa7a5e;fill-rule:nonzero;"/><path id="Button-Pad" serif:id="Button Pad" d="M26.279321970965,0c-9.353522827596,0 -16.935962406075,7.582632287597 -16.935962406075,16.936449274434l0,47.442386832089c0,9.353760549125 7.582439578479,16.936562149857 16.935962406075,16.936562149857l47.441350414443,0c9.353579263873,0 16.936018842352,-7.582801600732 16.936018842352,-16.936562149857l0,-47.442386832089c0,-9.353816986837 -7.582439578479,-16.936449274434 -16.936018842352,-16.936449274434l-47.441350414443,0Z" style="fill:url(#_Linear7);fill-rule:nonzero;"/></g><g id="Button-Glyph" serif:id="Button Glyph" transform="matrix(66.666667,0,0,66.666667,15.066667,52.830469)"><path d="M0.1,-0.465c0.008666666667,-0.038666666667 0.013,-0.075666666667 0.013,-0.111c0,-0.037333333333 -0.004333333333,-0.072333333333 -0.013,-0.105c0.039333333333,0.010666666667 0.077666666667,0.020333333333 0.115,0.029c0.037333333333,0.008666666667 0.077333333333,0.016333333333 0.12,0.023c0.042666666667,0.006666666667 0.091666666667,0.012833333333 0.147,0.0185c0.055333333333,0.005666666667 0.120833333333,0.0115 0.1965,0.0175c0.075666666667,0.006 0.1655,0.012333333333 0.2695,0.019l0,0.026c-0.098666666667,0.002666666667 -0.186,0.005833333333 -0.262,0.0095c-0.076,0.003666666667 -0.143166666667,0.007833333333 -0.2015,0.0125c-0.058333333333,0.004666666667 -0.110166666667,0.01 -0.1555,0.016c-0.045333333333,0.006 -0.0865,0.012666666667 -0.1235,0.02c-0.037,0.007333333333 -0.072166666667,0.015666666667 -0.1055,0.025Zm0,0.261c0.008666666667,-0.038666666667 0.013,-0.075666666667 0.013,-0.111c0,-0.037333333333 -0.004333333333,-0.072333333333 -0.013,-0.105c0.039333333333,0.010666666667 0.077666666667,0.020333333333 0.115,0.029c0.037333333333,0.008666666667 0.077333333333,0.016333333333 0.12,0.023c0.042666666667,0.006666666667 0.091666666667,0.012833333333 0.147,0.0185c0.055333333333,0.005666666667 0.120833333333,0.0115 0.1965,0.0175c0.075666666667,0.006 0.1655,0.012333333333 0.2695,0.019l0,0.026c-0.098666666667,0.002666666667 -0.186,0.005833333333 -0.262,0.0095c-0.076,0.003666666667 -0.143166666667,0.007833333333 -0.2015,0.0125c-0.058333333333,0.004666666667 -0.110166666667,0.01 -0.1555,0.016c-0.045333333333,0.006 -0.0865,0.012666666667 -0.1235,0.02c-0.037,0.007333333333 -0.072166666667,0.015666666667 -0.1055,0.025Zm0,0.261c0.008666666667,-0.038666666667 0.013,-0.075666666667 0.013,-0.111c0,-0.037333333333 -0.004333333333,-0.072333333333 -0.013,-0.105c0.039333333333,0.010666666667 0.077666666667,0.020333333333 0.115,0.029c0.037333333333,0.008666666667 0.077333333333,0.016333333333 0.12,0.023c0.042666666667,0.006666666667 0.091666666667,0.012833333333 0.147,0.0185c0.055333333333,0.005666666667 0.120833333333,0.0115 0.1965,0.0175c0.075666666667,0.006 0.1655,0.012333333333 0.2695,0.019l0,0.026c-0.098666666667,0.002666666667 -0.186,0.005833333333 -0.262,0.0095c-0.076,0.003666666667 -0.143166666667,0.007833333333 -0.2015,0.0125c-0.058333333333,0.004666666667 -0.110166666667,0.01 -0.1555,0.016c-0.045333333333,0.006 -0.0865,0.012666666667 -0.1235,0.02c-0.037,0.007333333333 -0.072166666667,0.015666666667 -0.1055,0.025Zm0.165,0.324c-0.012666666667,-0.076666666667 -0.0275,-0.1385 -0.0445,-0.1855c-0.017,-0.047 -0.033833333333,-0.087833333333 -0.0505,-0.1225c0.019333333333,0.002666666667 0.038666666667,0.004833333333 0.058,0.0065c0.019333333333,0.001666666667 0.038666666667,0.0025 0.058,0.0025c0.016666666667,0 0.033333333333,-0.000666666667 0.05,-0.002c0.016666666667,-0.001333333333 0.033333333333,-0.003666666667 0.05,-0.007c-0.01,0.024 -0.020666666667,0.050166666667 -0.032,0.0785c-0.011333333333,0.028333333333 -0.0225,0.060833333333 -0.0335,0.0975c-0.011,0.036666666667 -0.020833333333,0.080666666667 -0.0295,0.132l-0.026,0Z" style="fill:#78d9bd;fill-rule:nonzero;"/></g></g></g><defs><linearGradient id="_Linear1" x1="0" y1="0" x2="1" y2="0" gradientUnits="userSpaceOnUse" gradientTransform="matrix(92.763383,0,0,92.76574,3.618339,49.614579)"><stop offset="0" style="stop-color:#e8886f;stop-opacity:1"/><stop offset="1" style="stop-color:#8f5052;stop-opacity:1"/></linearGradient><linearGradient id="_Linear3" x1="0" y1="0" x2="1" y2="-0.062585682149" gradientUnits="userSpaceOnUse" gradientTransform="matrix(-28.059887,17.464196,16.200384,30.248874,98.641051,72.5833)"><stop offset="0" style="stop-color:#873a38;stop-opacity:0"/><stop offset="0.5" style="stop-color:#873a38;stop-opacity:1"/><stop offset="1" style="stop-color:#873a38;stop-opacity:0"/></linearGradient><linearGradient id="_Linear4" x1="0" y1="0" x2="1" y2="-0.067460929793" gradientUnits="userSpaceOnUse" gradientTransform="matrix(-16.200384,-30.248874,28.059887,-17.464196,92.711299,31.925601)"><stop offset="0" style="stop-color:#873a38;stop-opacity:0"/><stop offset="0.5" style="stop-color:#873a38;stop-opacity:1"/><stop offset="1" style="stop-color:#873a38;stop-opacity:0"/></linearGradient><linearGradient id="_Linear5" x1="0" y1="0" x2="1" y2="-0.062585682149" gradientUnits="userSpaceOnUse" gradientTransform="matrix(28.059887,17.464196,-16.200384,30.248874,1.278627,72.5833)"><stop offset="0" style="stop-color:#bc4a47;stop-opacity:0"/><stop offset="0.5" style="stop-color:#bc4a47;stop-opacity:1"/><stop offset="1" style="stop-color:#bc4a47;stop-opacity:0"/></linearGradient><linearGradient id="_Linear6" x1="0" y1="0" x2="1" y2="-0.067460929793" gradientUnits="userSpaceOnUse" gradientTransform="matrix(16.200384,-30.248874,-28.059887,-17.464196,7.208379,31.925601)"><stop offset="0" style="stop-color:#bc4a47;stop-opacity:0"/><stop offset="0.5" style="stop-color:#bc4a47;stop-opacity:1"/><stop offset="1" style="stop-color:#bc4a47;stop-opacity:0"/></linearGradient><linearGradient id="_Linear7" x1="0" y1="0" x2="1" y2="0" gradientUnits="userSpaceOnUse" gradientTransform="matrix(81.313343,0,0,81.315409,9.343363,40.657737)"><stop offset="0" style="stop-color:#e47a5e;stop-opacity:1"/><stop offset="1" style="stop-color:#ab605c;stop-opacity:1"/></linearGradient></defs></svg>