<?xml version="1.0" encoding="UTF-8" standalone="no"?><!DOCTYPE svg PUBLIC "-//W3C//DTD SVG 1.1//EN" "http://www.w3.org/Graphics/SVG/1.1/DTD/svg11.dtd"><svg width="100%" height="100%" viewBox="0 0 100 100" version="1.1" xmlns="http://www.w3.org/2000/svg" xmlns:xlink="http://www.w3.org/1999/xlink" xml:space="preserve" xmlns:serif="http://www.serif.com/" style="fill-rule:evenodd;clip-rule:evenodd;stroke-linejoin:round;stroke-miterlimit:2;"><rect id="QuadIcons" x="0" y="0" width="100" height="100" style="fill:none;"/><g id="Domains"><g id="Old-Persian" serif:id="Old Persian"><g id="Button"><path id="Underbutton" d="M96.38170569673,23.523345374695l0,59.540036037736c0,9.353816986837 -7.582552451033,16.936618587568 -16.936131714907,16.936618587568l-58.891085883742,0c-9.353522827596,0 -16.936188151184,-7.582801600732 -16.936188151184,-16.936618587568l0,-59.540036037736c0,-9.353760549125 13.946363497291,-23.905321449734 22.825370106718,-21.583135373357l47.11277840895,0c8.87895017315,-2.322186076376 22.825257234164,12.229374824232 22.825257234164,21.583135373357" style="fill:#6e6e6e;fill-rule:nonzero;"/><path id="Button-Body" serif:id="Button Body" d="M73.556442818938,0.708406154442l-47.11277840895,0c-8.879006609427,-2.322186076376 -22.825370106718,12.22931838652 -22.825370106718,21.583135373357l0,59.540036037736c0,9.353760549125 7.582665323588,16.936618587568 16.936188151184,16.936618587568l58.891085883742,0c9.353522827596,0 16.936131714907,-7.582858038443 16.936131714907,-16.936618587568l0,-59.540036037736c0,-8.678426893608 -12.004560509835,-21.831009802158 -20.82938829321,-21.830558300466c-0.686773056481,0.000056437711 -1.354752832676,0.079746486315 -1.995868940954,0.247422927109Z" style="fill:url(#_Linear1);fill-rule:nonzero;"/><clipPath id="_clip2"><path d="M73.556442818938,0.708406154442l-47.11277840895,0c-8.879006609427,-2.322186076376 -22.825370106718,12.22931838652 -22.825370106718,21.583135373357l0,59.540036037736c0,9.353760549125 7.582665323588,16.936618587568 16.936188151184,16.936618587568l58.891085883742,0c9.353522827596,0 16.936131714907,-7.582858038443 16.936131714907,-16.936618587568l0,-59.540036037736c0,-8.678426893608 -12.004560509835,-21.831009802158 -20.82938829321,-21.830558300466c-0.686773056481,0.000056437711 -1.354752832676,0.079746486315 -1.995868940954,0.247422927109Z" clip-rule="nonzero"/></clipPath><g clip-path="url(#_clip2)"><g id="ShadowsLights"><path d="M62.480972074938,74.923059030163l16.200383560187,30.24887399767l28.059887428348,-17.464195545238l-16.200383560187,-30.24887399767l-28.059887428348,17.464195545238Z" style="fill:url(#_Linear3);"/><path d="M62.480972074938,10.40882513052l28.059887428348,-17.464195545238l16.200383560187,30.24887399767l-28.059887428348,17.464195545238l-16.200383560187,-30.24887399767Z" style="fill:url(#_Linear4);"/><path d="M37.43870580762,74.923059030163l-16.200383560187,30.24887399767l-28.059887428348,-17.464195545238l16.200383560187,-30.24887399767l28.059887428348,17.464195545238Z" style="fill:url(#_Linear5);"/><path d="M37.43870580762,10.40882513052l-28.059887428348,-17.464195545238l-16.200383560187,30.24887399767l28.059887428348,17.464195545238l16.200383560187,-30.24887399767Z" style="fill:url(#_Linear6);"/></g></g><path id="Button-Outline" serif:id="Button Outline" d="M91.346641646644,17.533120047697l0,47.822720569723c0,9.428766267677 -7.711114290352,17.072351283667 -17.223392365534,17.072351283667l-48.246470344081,0c-9.512278075183,0 -17.223335929257,-7.643585015991 -17.223335929257,-17.072351283667l0,-47.822720569723c0,-9.428766267677 7.711057854075,-17.072181970533 17.223335929257,-17.072181970533l48.246470344081,0c9.512278075183,0 17.223392365534,7.643415702856 17.223392365534,17.072181970533" style="fill:#e0c59d;fill-rule:nonzero;"/><path id="Button-Pad" serif:id="Button Pad" d="M26.279321970965,0c-9.353522827596,0 -16.935962406075,7.582632287597 -16.935962406075,16.936449274434l0,47.442386832089c0,9.353760549125 7.582439578479,16.936562149857 16.935962406075,16.936562149857l47.441350414443,0c9.353579263873,0 16.936018842352,-7.582801600732 16.936018842352,-16.936562149857l0,-47.442386832089c0,-9.353816986837 -7.582439578479,-16.936449274434 -16.936018842352,-16.936449274434l-47.441350414443,0Z" style="fill:url(#_Linear7);fill-rule:nonzero;"/></g><g id="Button-Glyph" serif:id="Button Glyph" transform="matrix(66.666667,0,0,66.666667,11.766667,66.221502)"><path d="M0.172,-0.538c0.002666666667,-0.016666666667 0.004666666667,-0.033333333333 0.006,-0.05c0.001333333333,-0.016666666667 0.002,-0.033333333333 0.002,-0.05c0,-0.017333333333 -0.000833333333,-0.035166666667 -0.0025,-0.0535c-0.001666666667,-0.018333333333 -0.0045,-0.036833333333 -0.0085,-0.0555c0.022666666667,0.014666666667 0.0555,0.029833333333 0.0985,0.0455c0.043,0.015666666667 0.097833333333,0.028166666667 0.1645,0.0375c-0.000666666667,-0.013333333333 -0.001833333333,-0.026833333333 -0.0035,-0.0405c-0.001666666667,-0.013666666667 -0.004166666667,-0.027833333333 -0.0075,-0.0425c0.023333333333,0.014666666667 0.056666666667,0.029833333333 0.1,0.0455c0.043333333333,0.015666666667 0.098333333333,0.028166666667 0.165,0.0375c-0.000666666667,-0.014 -0.0015,-0.028333333333 -0.0025,-0.043c-0.001,-0.014666666667 -0.002833333333,-0.029666666667 -0.0055,-0.045c0.028,0.016666666667 0.071833333333,0.032333333333 0.1315,0.047c0.059666666667,0.014666666667 0.1325,0.025666666667 0.2185,0.033l0,0.024c-0.091333333333,0.015333333333 -0.1645,0.031666666667 -0.2195,0.049c-0.055,0.017333333333 -0.097166666667,0.036 -0.1265,0.056c0.001333333333,-0.016 0.002333333333,-0.032166666667 0.003,-0.0485c0.000666666667,-0.016333333333 0.001,-0.032833333333 0.001,-0.0495c-0.071333333333,0.016 -0.126666666667,0.032833333333 -0.166,0.0505c-0.039333333333,0.017666666667 -0.070666666667,0.035166666667 -0.094,0.0525c0.002,-0.016666666667 0.003666666667,-0.0335 0.005,-0.0505c0.001333333333,-0.017 0.002,-0.034166666667 0.002,-0.0515c-0.071333333333,0.015333333333 -0.126666666667,0.031833333333 -0.166,0.0495c-0.039333333333,0.017666666667 -0.071,0.035166666667 -0.095,0.0525Zm0.834,0.664c-0.048666666667,-0.046666666667 -0.092333333333,-0.087666666667 -0.131,-0.123c-0.038666666667,-0.035333333333 -0.073666666667,-0.066666666667 -0.105,-0.094c-0.031333333333,-0.027333333333 -0.061,-0.052333333333 -0.089,-0.075c0.022,-0.02 0.049833333333,-0.0465 0.0835,-0.0795c0.033666666667,-0.033 0.070166666667,-0.070666666667 0.1095,-0.113c0.039333333333,-0.042333333333 0.077666666667,-0.086833333333 0.115,-0.1335l0.023,0.013c-0.030666666667,0.063333333333 -0.059,0.121166666667 -0.085,0.1735c-0.026,0.052333333333 -0.050333333333,0.098833333333 -0.073,0.1395c0.018666666667,0.028 0.042833333333,0.066333333333 0.0725,0.115c0.029666666667,0.048666666667 0.063166666667,0.102333333333 0.1005,0.161l-0.021,0.016Zm-0.571,0c-0.048666666667,-0.046666666667 -0.092166666667,-0.087666666667 -0.1305,-0.123c-0.038333333333,-0.035333333333 -0.073166666667,-0.066666666667 -0.1045,-0.094c-0.031333333333,-0.027333333333 -0.061333333333,-0.052333333333 -0.09,-0.075c0.022,-0.02 0.049833333333,-0.0465 0.0835,-0.0795c0.033666666667,-0.033 0.070166666667,-0.070666666667 0.1095,-0.113c0.039333333333,-0.042333333333 0.077666666667,-0.086833333333 0.115,-0.1335l0.024,0.013c-0.030666666667,0.063333333333 -0.059166666667,0.121166666667 -0.0855,0.1735c-0.026333333333,0.052333333333 -0.050833333333,0.098833333333 -0.0735,0.1395c0.019333333333,0.028 0.043833333333,0.066333333333 0.0735,0.115c0.029666666667,0.048666666667 0.062833333333,0.102333333333 0.0995,0.161l-0.021,0.016Zm0.287,0c-0.048,-0.046666666667 -0.091166666667,-0.087666666667 -0.1295,-0.123c-0.038333333333,-0.035333333333 -0.073166666667,-0.066666666667 -0.1045,-0.094c-0.031333333333,-0.027333333333 -0.061,-0.052333333333 -0.089,-0.075c0.022,-0.02 0.049833333333,-0.0465 0.0835,-0.0795c0.033666666667,-0.033 0.070166666667,-0.070666666667 0.1095,-0.113c0.039333333333,-0.042333333333 0.077666666667,-0.086833333333 0.115,-0.1335l0.023,0.013c-0.030666666667,0.063333333333 -0.059,0.121166666667 -0.085,0.1735c-0.026,0.052333333333 -0.050333333333,0.098833333333 -0.073,0.1395c0.018,0.028 0.041833333333,0.066333333333 0.0715,0.115c0.029666666667,0.048666666667 0.062833333333,0.102333333333 0.0995,0.161l-0.021,0.016Z" style="fill:#ba2447;fill-rule:nonzero;"/></g></g></g><defs><linearGradient id="_Linear1" x1="0" y1="0" x2="1" y2="0" gradientUnits="userSpaceOnUse" gradientTransform="matrix(92.763383,0,0,92.76574,3.618339,49.614579)"><stop offset="0" style="stop-color:#eec696;stop-opacity:1"/><stop offset="1" style="stop-color:#ad7a5d;stop-opacity:1"/></linearGradient><linearGradient id="_Linear3" x1="0" y1="0" x2="1" y2="-0.062585682149" gradientUnits="userSpaceOnUse" gradientTransform="matrix(-28.059887,17.464196,16.200384,30.248874,98.641051,72.5833)"><stop offset="0" style="stop-color:#a25c47;stop-opacity:0"/><stop offset="0.5" style="stop-color:#a25c47;stop-opacity:1"/><stop offset="1" style="stop-color:#a25c47;stop-opacity:0"/></linearGradient><linearGradient id="_Linear4" x1="0" y1="0" x2="1" y2="-0.067460929793" gradientUnits="userSpaceOnUse" gradientTransform="matrix(-16.200384,-30.248874,28.059887,-17.464196,92.711299,31.925601)"><stop offset="0" style="stop-color:#a25c47;stop-opacity:0"/><stop offset="0.5" style="stop-color:#a25c47;stop-opacity:1"/><stop offset="1" style="stop-color:#a25c47;stop-opacity:0"/></linearGradient><linearGradient id="_Linear5" x1="0" y1="0" x2="1" y2="-0.062585682149" gradientUnits="userSpaceOnUse" gradientTransform="matrix(28.059887,17.464196,-16.200384,30.248874,1.278627,72.5833)"><stop offset="0" style="stop-color:#ecc9a4;stop-opacity:0"/><stop offset="0.5" style="stop-color:#ecc9a4;stop-opacity:1"/><stop offset="1" style="stop-color:#ecc9a4;stop-opacity:0"/></linearGradient><linearGradient id="_Linear6" x1="0" y1="0" x2="1" y2="-0.067460929793" gradientUnits="userSpaceOnUse" gradientTransform="matrix(16.200384,-30.248874,-28.059887,-17.464196,7.208379,31.925601)"><stop offset="0" style="stop-color:#ecc9a4;stop-opacity:0"/><stop offset="0.5" style="stop-color:#ecc9a4;stop-opacity:1"/><stop offset="1" style="stop-color:#ecc9a4;stop-opacity:0"/></linearGradient><linearGradient id="_Linear7" x1="0" y1="0" x2="1" y2="0" gradientUnits="userSpaceOnUse" gradientTransform="matrix(81.313343,0,0,81.315409,9.343363,40.657737)"><stop offset="0" style="stop-color:#ebc88e;stop-opacity:1"/><stop offset="1" style="stop-color:#c99e7f;stop-opacity:1"/></linearGradient></defs></svg>