<?xml version="1.0" encoding="UTF-8" standalone="no"?><!DOCTYPE svg PUBLIC "-//W3C//DTD SVG 1.1//EN" "http://www.w3.org/Graphics/SVG/1.1/DTD/svg11.dtd"><svg width="100%" height="100%" viewBox="0 0 100 100" version="1.1" xmlns="http://www.w3.org/2000/svg" xmlns:xlink="http://www.w3.org/1999/xlink" xml:space="preserve" xmlns:serif="http://www.serif.com/" style="fill-rule:evenodd;clip-rule:evenodd;stroke-linejoin:round;stroke-miterlimit:2;"><rect id="QuadIcons" x="0" y="0" width="100" height="100" style="fill:none;"/><g id="Glagolitic"><g id="Button"><path id="Underbutton" d="M96.38170569673,23.523345374695l0,59.540036037736c0,9.353816986837 -7.582552451033,16.936618587568 -16.936131714907,16.936618587568l-58.891085883742,0c-9.353522827596,0 -16.936188151184,-7.582801600732 -16.936188151184,-16.936618587568l0,-59.540036037736c0,-9.353760549125 13.946363497291,-23.905321449734 22.825370106718,-21.583135373357l47.11277840895,0c8.87895017315,-2.322186076376 22.825257234164,12.229374824232 22.825257234164,21.583135373357" style="fill:#6e6e6e;fill-rule:nonzero;"/><path id="Button-Body" serif:id="Button Body" d="M73.556442818938,0.708406154442l-47.11277840895,0c-8.879006609427,-2.322186076376 -22.825370106718,12.22931838652 -22.825370106718,21.583135373357l0,59.540036037736c0,9.353760549125 7.582665323588,16.936618587568 16.936188151184,16.936618587568l58.891085883742,0c9.353522827596,0 16.936131714907,-7.582858038443 16.936131714907,-16.936618587568l0,-59.540036037736c0,-8.678426893608 -12.004560509835,-21.831009802158 -20.82938829321,-21.830558300466c-0.686773056481,0.000056437711 -1.354752832676,0.079746486315 -1.995868940954,0.247422927109Z" style="fill:url(#_Linear1);fill-rule:nonzero;"/><clipPath id="_clip2"><path d="M73.556442818938,0.708406154442l-47.11277840895,0c-8.879006609427,-2.322186076376 -22.825370106718,12.22931838652 -22.825370106718,21.583135373357l0,59.540036037736c0,9.353760549125 7.582665323588,16.936618587568 16.936188151184,16.936618587568l58.891085883742,0c9.353522827596,0 16.936131714907,-7.582858038443 16.936131714907,-16.936618587568l0,-59.540036037736c0,-8.678426893608 -12.004560509835,-21.831009802158 -20.82938829321,-21.830558300466c-0.686773056481,0.000056437711 -1.354752832676,0.079746486315 -1.995868940954,0.247422927109Z" clip-rule="nonzero"/></clipPath><g clip-path="url(#_clip2)"><g id="ShadowsLights"><path d="M62.480972074938,74.923059030163l16.200383560187,30.24887399767l28.059887428348,-17.464195545238l-16.200383560187,-30.24887399767l-28.059887428348,17.464195545238Z" style="fill:url(#_Linear3);"/><path d="M62.480972074938,10.40882513052l28.059887428348,-17.464195545238l16.200383560187,30.24887399767l-28.059887428348,17.464195545238l-16.200383560187,-30.24887399767Z" style="fill:url(#_Linear4);"/><path d="M37.43870580762,74.923059030163l-16.200383560187,30.24887399767l-28.059887428348,-17.464195545238l16.200383560187,-30.24887399767l28.059887428348,17.464195545238Z" style="fill:url(#_Linear5);"/><path d="M37.43870580762,10.40882513052l-28.059887428348,-17.464195545238l-16.200383560187,30.24887399767l28.059887428348,17.464195545238l16.200383560187,-30.24887399767Z" style="fill:url(#_Linear6);"/></g></g><path id="Button-Outline" serif:id="Button Outline" d="M91.346641646644,17.533120047697l0,47.822720569723c0,9.428766267677 -7.711114290352,17.072351283667 -17.223392365534,17.072351283667l-48.246470344081,0c-9.512278075183,0 -17.223335929257,-7.643585015991 -17.223335929257,-17.072351283667l0,-47.822720569723c0,-9.428766267677 7.711057854075,-17.072181970533 17.223335929257,-17.072181970533l48.246470344081,0c9.512278075183,0 17.223392365534,7.643415702856 17.223392365534,17.072181970533" style="fill:#f44765;fill-rule:nonzero;"/><path id="Button-Pad" serif:id="Button Pad" d="M26.279321970965,0c-9.353522827596,0 -16.935962406075,7.582632287597 -16.935962406075,16.936449274434l0,47.442386832089c0,9.353760549125 7.582439578479,16.936562149857 16.935962406075,16.936562149857l47.441350414443,0c9.353579263873,0 16.936018842352,-7.582801600732 16.936018842352,-16.936562149857l0,-47.442386832089c0,-9.353816986837 -7.582439578479,-16.936449274434 -16.936018842352,-16.936449274434l-47.441350414443,0Z" style="fill:url(#_Linear7);fill-rule:nonzero;"/></g><g id="Button-Glyph" serif:id="Button Glyph" transform="matrix(62.5,0,0,62.5,11.502075,62.403061)"><path d="M0.20751953125,-0.263671875c-0.014973958333,0 -0.029296875,0.004720052083 -0.04296875,0.01416015625c-0.013671875,0.009440104167 -0.024169921875,0.023030598958 -0.031494140625,0.040771484375c-0.00732421875,0.017740885417 -0.010986328125,0.036051432292 -0.010986328125,0.054931640625c0,0.019205729167 0.003662109375,0.03759765625 0.010986328125,0.05517578125c0.00732421875,0.017578125 0.017822265625,0.031087239583 0.031494140625,0.04052734375c0.013671875,0.009440104167 0.027994791667,0.01416015625 0.04296875,0.01416015625c0.0146484375,0 0.028889973958,-0.004720052083 0.042724609375,-0.01416015625c0.013834635417,-0.009440104167 0.0244140625,-0.02294921875 0.03173828125,-0.04052734375c0.00732421875,-0.017578125 0.010986328125,-0.035970052083 0.010986328125,-0.05517578125c0,-0.018880208333 -0.003662109375,-0.037190755208 -0.010986328125,-0.054931640625c-0.00732421875,-0.017740885417 -0.017903645833,-0.031331380208 -0.03173828125,-0.040771484375c-0.013834635417,-0.009440104167 -0.028076171875,-0.01416015625 -0.042724609375,-0.01416015625Zm0,-0.3759765625c-0.014973958333,0 -0.029296875,0.004720052083 -0.04296875,0.01416015625c-0.013671875,0.009440104167 -0.024169921875,0.023030598958 -0.031494140625,0.040771484375c-0.00732421875,0.017740885417 -0.010986328125,0.036051432292 -0.010986328125,0.054931640625c0,0.019205729167 0.003662109375,0.03759765625 0.010986328125,0.05517578125c0.00732421875,0.017578125 0.017822265625,0.031087239583 0.031494140625,0.04052734375c0.013671875,0.009440104167 0.027994791667,0.01416015625 0.04296875,0.01416015625c0.0146484375,0 0.028889973958,-0.004720052083 0.042724609375,-0.01416015625c0.013834635417,-0.009440104167 0.0244140625,-0.02294921875 0.03173828125,-0.04052734375c0.00732421875,-0.017578125 0.010986328125,-0.035970052083 0.010986328125,-0.05517578125c0,-0.018880208333 -0.003662109375,-0.037190755208 -0.010986328125,-0.054931640625c-0.00732421875,-0.017740885417 -0.017903645833,-0.031331380208 -0.03173828125,-0.040771484375c-0.013834635417,-0.009440104167 -0.028076171875,-0.01416015625 -0.042724609375,-0.01416015625Zm0.3662109375,0.224609375c-0.013020833333,0 -0.025390625,0.003092447917 -0.037109375,0.00927734375c-0.01171875,0.006184895833 -0.020670572917,0.01513671875 -0.02685546875,0.02685546875c-0.006184895833,0.01171875 -0.00927734375,0.024088541667 -0.00927734375,0.037109375c0,0.013020833333 0.003092447917,0.025390625 0.00927734375,0.037109375c0.006184895833,0.01171875 0.01513671875,0.020670572917 0.02685546875,0.02685546875c0.01171875,0.006184895833 0.024088541667,0.00927734375 0.037109375,0.00927734375c0.013020833333,0 0.025390625,-0.003092447917 0.037109375,-0.00927734375c0.01171875,-0.006184895833 0.020670572917,-0.01513671875 0.02685546875,-0.02685546875c0.006184895833,-0.01171875 0.00927734375,-0.024088541667 0.00927734375,-0.037109375c0,-0.013020833333 -0.003092447917,-0.025390625 -0.00927734375,-0.037109375c-0.006184895833,-0.01171875 -0.01513671875,-0.020670572917 -0.02685546875,-0.02685546875c-0.01171875,-0.006184895833 -0.024088541667,-0.00927734375 -0.037109375,-0.00927734375Zm-0.0830078125,0.1650390625c-0.0126953125,0.05859375 -0.038736979167,0.110188802083 -0.078125,0.15478515625c-0.05859375,0.066731770833 -0.135091145833,0.10009765625 -0.2294921875,0.10009765625c-0.027669270833,0 -0.05419921875,-0.0068359375 -0.07958984375,-0.0205078125c-0.025390625,-0.013671875 -0.044921875,-0.033203125 -0.05859375,-0.05859375c-0.013671875,-0.025390625 -0.0205078125,-0.051920572917 -0.0205078125,-0.07958984375c0,-0.02734375 0.0068359375,-0.053792317708 0.0205078125,-0.079345703125c0.013671875,-0.025553385417 0.033203125,-0.045166015625 0.05859375,-0.058837890625c0.025390625,-0.013671875 0.051920572917,-0.0205078125 0.07958984375,-0.0205078125c0.02734375,0 0.053792317708,0.0068359375 0.079345703125,0.0205078125c0.025553385417,0.013671875 0.045166015625,0.033284505208 0.058837890625,0.058837890625c0.013671875,0.025553385417 0.0205078125,0.052001953125 0.0205078125,0.079345703125c0,0.0068359375 -0.00048828125,0.013509114583 -0.00146484375,0.02001953125c0.001302083333,-0.001627604167 0.002604166667,-0.003580729167 0.00390625,-0.005859375c0.0390625,-0.0634765625 0.05859375,-0.130859375 0.05859375,-0.2021484375c0,-0.072591145833 -0.01953125,-0.140462239583 -0.05859375,-0.20361328125c-0.001302083333,-0.001953125 -0.002604166667,-0.00390625 -0.00390625,-0.005859375c0.0009765625,0.007161458333 0.00146484375,0.014322916667 0.00146484375,0.021484375c0,0.027669270833 -0.0068359375,0.05419921875 -0.0205078125,0.07958984375c-0.013671875,0.025390625 -0.033284505208,0.044921875 -0.058837890625,0.05859375c-0.025553385417,0.013671875 -0.052001953125,0.0205078125 -0.079345703125,0.0205078125c-0.027669270833,0 -0.05419921875,-0.0068359375 -0.07958984375,-0.0205078125c-0.025390625,-0.013671875 -0.044921875,-0.033203125 -0.05859375,-0.05859375c-0.013671875,-0.025390625 -0.0205078125,-0.051920572917 -0.0205078125,-0.07958984375c0,-0.02734375 0.0068359375,-0.053792317708 0.0205078125,-0.079345703125c0.013671875,-0.025553385417 0.033203125,-0.045166015625 0.05859375,-0.058837890625c0.025390625,-0.013671875 0.051920572917,-0.0205078125 0.07958984375,-0.0205078125c0.095377604167,0 0.172200520833,0.033365885417 0.23046875,0.10009765625c0.038736979167,0.044596354167 0.064453125,0.09619140625 0.0771484375,0.15478515625c0.006510416667,-0.005533854167 0.013671875,-0.010416666667 0.021484375,-0.0146484375c0.01953125,-0.010416666667 0.0400390625,-0.015625 0.0615234375,-0.015625c0.021484375,0 0.0419921875,0.005208333333 0.0615234375,0.015625c0.008138020833,0.004231770833 0.015462239583,0.00927734375 0.02197265625,0.01513671875c0.013671875,-0.05859375 0.04150390625,-0.1103515625 0.08349609375,-0.1552734375c0.0625,-0.066731770833 0.145182291667,-0.10009765625 0.248046875,-0.10009765625c0.032552083333,0 0.062662760417,0.00634765625 0.09033203125,0.01904296875c0.027669270833,0.0126953125 0.04638671875,0.01904296875 0.05615234375,0.01904296875c0.009765625,0 0.018473307292,-0.004313151042 0.026123046875,-0.012939453125c0.007649739583,-0.008626302083 0.011474609375,-0.017008463542 0.011474609375,-0.025146484375l0.01806640625,0l0,0.2197265625l-0.01806640625,0c0,-0.026041666667 -0.008707682292,-0.052897135417 -0.026123046875,-0.08056640625c-0.017415364583,-0.027669270833 -0.040364583333,-0.049641927083 -0.06884765625,-0.06591796875c-0.028483072917,-0.016276041667 -0.058186848958,-0.0244140625 -0.089111328125,-0.0244140625c-0.0771484375,0 -0.137044270833,0.031412760417 -0.1796875,0.09423828125c-0.0380859375,0.055989583333 -0.059244791667,0.11572265625 -0.0634765625,0.17919921875l0.2919921875,0l0,0.048828125l-0.2919921875,0c0.004557291667,0.062825520833 0.025716145833,0.1220703125 0.0634765625,0.177734375c0.042643229167,0.063802083333 0.1025390625,0.095703125 0.1796875,0.095703125c0.087565104167,0 0.156412760417,-0.026692708333 0.20654296875,-0.080078125l0.01220703125,0.01708984375c-0.003580729167,0.00390625 -0.007161458333,0.0078125 -0.0107421875,0.01171875c-0.063151041667,0.066731770833 -0.132486979167,0.10009765625 -0.2080078125,0.10009765625c-0.1015625,0 -0.183919270833,-0.033365885417 -0.2470703125,-0.10009765625c-0.042643229167,-0.044596354167 -0.07080078125,-0.096354166667 -0.08447265625,-0.1552734375c-0.006510416667,0.005859375 -0.013834635417,0.010904947917 -0.02197265625,0.01513671875c-0.01953125,0.010416666667 -0.0400390625,0.015625 -0.0615234375,0.015625c-0.021484375,0 -0.0419921875,-0.005208333333 -0.0615234375,-0.015625c-0.0078125,-0.004231770833 -0.014973958333,-0.009114583333 -0.021484375,-0.0146484375Z" style="fill:#f9c138;fill-rule:nonzero;"/></g></g><defs><linearGradient id="_Linear1" x1="0" y1="0" x2="1" y2="0" gradientUnits="userSpaceOnUse" gradientTransform="matrix(92.763383,0,0,92.76574,3.618339,49.614579)"><stop offset="0" style="stop-color:#f40b34;stop-opacity:1"/><stop offset="1" style="stop-color:#a50f01;stop-opacity:1"/></linearGradient><linearGradient id="_Linear3" x1="0" y1="0" x2="1" y2="-0.062585682149" gradientUnits="userSpaceOnUse" gradientTransform="matrix(-28.059887,17.464196,16.200384,30.248874,98.641051,72.5833)"><stop offset="0" style="stop-color:#8c0804;stop-opacity:0"/><stop offset="0.5" style="stop-color:#8c0804;stop-opacity:1"/><stop offset="1" style="stop-color:#8c0804;stop-opacity:0"/></linearGradient><linearGradient id="_Linear4" x1="0" y1="0" x2="1" y2="-0.067460929793" gradientUnits="userSpaceOnUse" gradientTransform="matrix(-16.200384,-30.248874,28.059887,-17.464196,92.711299,31.925601)"><stop offset="0" style="stop-color:#8c0804;stop-opacity:0"/><stop offset="0.5" style="stop-color:#8c0804;stop-opacity:1"/><stop offset="1" style="stop-color:#8c0804;stop-opacity:0"/></linearGradient><linearGradient id="_Linear5" x1="0" y1="0" x2="1" y2="-0.062585682149" gradientUnits="userSpaceOnUse" gradientTransform="matrix(28.059887,17.464196,-16.200384,30.248874,1.278627,72.5833)"><stop offset="0" style="stop-color:#f41042;stop-opacity:0"/><stop offset="0.5" style="stop-color:#f41042;stop-opacity:1"/><stop offset="1" style="stop-color:#f41042;stop-opacity:0"/></linearGradient><linearGradient id="_Linear6" x1="0" y1="0" x2="1" y2="-0.067460929793" gradientUnits="userSpaceOnUse" gradientTransform="matrix(16.200384,-30.248874,-28.059887,-17.464196,7.208379,31.925601)"><stop offset="0" style="stop-color:#f41042;stop-opacity:0"/><stop offset="0.5" style="stop-color:#f41042;stop-opacity:1"/><stop offset="1" style="stop-color:#f41042;stop-opacity:0"/></linearGradient><linearGradient id="_Linear7" x1="0" y1="0" x2="1" y2="0" gradientUnits="userSpaceOnUse" gradientTransform="matrix(81.313343,0,0,81.315409,9.343363,40.657737)"><stop offset="0" style="stop-color:#f44765;stop-opacity:1"/><stop offset="1" style="stop-color:#940406;stop-opacity:1"/></linearGradient></defs></svg>