<?xml version="1.0" encoding="UTF-8" standalone="no"?><!DOCTYPE svg PUBLIC "-//W3C//DTD SVG 1.1//EN" "http://www.w3.org/Graphics/SVG/1.1/DTD/svg11.dtd"><svg width="100%" height="100%" viewBox="0 0 100 100" version="1.1" xmlns="http://www.w3.org/2000/svg" xmlns:xlink="http://www.w3.org/1999/xlink" xml:space="preserve" xmlns:serif="http://www.serif.com/" style="fill-rule:evenodd;clip-rule:evenodd;stroke-linejoin:round;stroke-miterlimit:2;"><rect id="QuadIcons" x="0" y="0" width="100" height="100" style="fill:none;"/><g id="Lampadion"><g id="Button"><path id="Underbutton" d="M96.38170569673,23.523345374695l0,59.540036037736c0,9.353816986837 -7.582552451033,16.936618587568 -16.936131714907,16.936618587568l-58.891085883742,0c-9.353522827596,0 -16.936188151184,-7.582801600732 -16.936188151184,-16.936618587568l0,-59.540036037736c0,-9.353760549125 13.946363497291,-23.905321449734 22.825370106718,-21.583135373357l47.11277840895,0c8.87895017315,-2.322186076376 22.825257234164,12.229374824232 22.825257234164,21.583135373357" style="fill:#6e6e6e;fill-rule:nonzero;"/><path id="Button-Body" serif:id="Button Body" d="M73.556442818938,0.708406154442l-47.11277840895,0c-8.879006609427,-2.322186076376 -22.825370106718,12.22931838652 -22.825370106718,21.583135373357l0,59.540036037736c0,9.353760549125 7.582665323588,16.936618587568 16.936188151184,16.936618587568l58.891085883742,0c9.353522827596,0 16.936131714907,-7.582858038443 16.936131714907,-16.936618587568l0,-59.540036037736c0,-8.678426893608 -12.004560509835,-21.831009802158 -20.82938829321,-21.830558300466c-0.686773056481,0.000056437711 -1.354752832676,0.079746486315 -1.995868940954,0.247422927109Z" style="fill:url(#_Linear1);fill-rule:nonzero;"/><clipPath id="_clip2"><path d="M73.556442818938,0.708406154442l-47.11277840895,0c-8.879006609427,-2.322186076376 -22.825370106718,12.22931838652 -22.825370106718,21.583135373357l0,59.540036037736c0,9.353760549125 7.582665323588,16.936618587568 16.936188151184,16.936618587568l58.891085883742,0c9.353522827596,0 16.936131714907,-7.582858038443 16.936131714907,-16.936618587568l0,-59.540036037736c0,-8.678426893608 -12.004560509835,-21.831009802158 -20.82938829321,-21.830558300466c-0.686773056481,0.000056437711 -1.354752832676,0.079746486315 -1.995868940954,0.247422927109Z" clip-rule="nonzero"/></clipPath><g clip-path="url(#_clip2)"><g id="ShadowsLights"><path d="M62.480972074938,74.923059030163l16.200383560187,30.24887399767l28.059887428348,-17.464195545238l-16.200383560187,-30.24887399767l-28.059887428348,17.464195545238Z" style="fill:url(#_Linear3);"/><path d="M62.480972074938,10.40882513052l28.059887428348,-17.464195545238l16.200383560187,30.24887399767l-28.059887428348,17.464195545238l-16.200383560187,-30.24887399767Z" style="fill:url(#_Linear4);"/><path d="M37.43870580762,74.923059030163l-16.200383560187,30.24887399767l-28.059887428348,-17.464195545238l16.200383560187,-30.24887399767l28.059887428348,17.464195545238Z" style="fill:url(#_Linear5);"/><path d="M37.43870580762,10.40882513052l-28.059887428348,-17.464195545238l-16.200383560187,30.24887399767l28.059887428348,17.464195545238l16.200383560187,-30.24887399767Z" style="fill:url(#_Linear6);"/></g></g><path id="Button-Outline" serif:id="Button Outline" d="M91.346641646644,17.533120047697l0,47.822720569723c0,9.428766267677 -7.711114290352,17.072351283667 -17.223392365534,17.072351283667l-48.246470344081,0c-9.512278075183,0 -17.223335929257,-7.643585015991 -17.223335929257,-17.072351283667l0,-47.822720569723c0,-9.428766267677 7.711057854075,-17.072181970533 17.223335929257,-17.072181970533l48.246470344081,0c9.512278075183,0 17.223392365534,7.643415702856 17.223392365534,17.072181970533" style="fill:#f7d000;fill-rule:nonzero;"/><path id="Button-Pad" serif:id="Button Pad" d="M26.279321970965,0c-9.353522827596,0 -16.935962406075,7.582632287597 -16.935962406075,16.936449274434l0,47.442386832089c0,9.353760549125 7.582439578479,16.936562149857 16.935962406075,16.936562149857l47.441350414443,0c9.353579263873,0 16.936018842352,-7.582801600732 16.936018842352,-16.936562149857l0,-47.442386832089c0,-9.353816986837 -7.582439578479,-16.936449274434 -16.936018842352,-16.936449274434l-47.441350414443,0Z" style="fill:url(#_Linear7);fill-rule:nonzero;"/></g><g id="Button-Glyph" serif:id="Button Glyph" transform="matrix(83.333333,0,0,83.333333,17.875163,69.574692)"><path d="M0.47802734375,-0l0,-0.01953125l0.0244140625,0c0.022786458333,0 0.036783854167,-0.008951822917 0.0419921875,-0.02685546875c0.002278645833,-0.008138020833 0.00341796875,-0.016276041667 0.00341796875,-0.0244140625c0,-0.007486979167 -0.0009765625,-0.014811197917 -0.0029296875,-0.02197265625l-0.18603515625,-0.46044921875l-0.18603515625,0.4599609375c-0.001627604167,0.005859375 -0.00244140625,0.011881510417 -0.00244140625,0.01806640625c0,0.009440104167 0.001790364583,0.01904296875 0.00537109375,0.02880859375c0.006510416667,0.017903645833 0.021158854167,0.02685546875 0.0439453125,0.02685546875l0.0244140625,0l0,0.01953125l-0.244140625,-0l0,-0.01953125l0.0244140625,0c0.022786458333,0 0.043131510417,-0.008951822917 0.06103515625,-0.02685546875c0.0166015625,-0.0166015625 0.0283203125,-0.032552083333 0.03515625,-0.0478515625l0.23828125,-0.58935546875l0.052734375,0l0.23779296875,0.58837890625c0.007161458333,0.015625 0.019205729167,0.031901041667 0.0361328125,0.048828125c0.017903645833,0.017903645833 0.038248697917,0.02685546875 0.06103515625,0.02685546875l0.0244140625,0l0,0.01953125l-0.29296875,-0Z" style="fill:#fefefe;fill-rule:nonzero;"/></g></g><defs><linearGradient id="_Linear1" x1="0" y1="0" x2="1" y2="0" gradientUnits="userSpaceOnUse" gradientTransform="matrix(92.763383,0,0,92.76574,3.618339,49.614579)"><stop offset="0" style="stop-color:#d4a51e;stop-opacity:1"/><stop offset="1" style="stop-color:#7a6839;stop-opacity:1"/></linearGradient><linearGradient id="_Linear3" x1="0" y1="0" x2="1" y2="-0.062585682149" gradientUnits="userSpaceOnUse" gradientTransform="matrix(-28.059887,17.464196,16.200384,30.248874,98.641051,72.5833)"><stop offset="0" style="stop-color:#503f1e;stop-opacity:0"/><stop offset="0.5" style="stop-color:#503f1e;stop-opacity:1"/><stop offset="1" style="stop-color:#503f1e;stop-opacity:0"/></linearGradient><linearGradient id="_Linear4" x1="0" y1="0" x2="1" y2="-0.067460929793" gradientUnits="userSpaceOnUse" gradientTransform="matrix(-16.200384,-30.248874,28.059887,-17.464196,92.711299,31.925601)"><stop offset="0" style="stop-color:#503f1e;stop-opacity:0"/><stop offset="0.5" style="stop-color:#503f1e;stop-opacity:1"/><stop offset="1" style="stop-color:#503f1e;stop-opacity:0"/></linearGradient><linearGradient id="_Linear5" x1="0" y1="0" x2="1" y2="-0.062585682149" gradientUnits="userSpaceOnUse" gradientTransform="matrix(28.059887,17.464196,-16.200384,30.248874,1.278627,72.5833)"><stop offset="0" style="stop-color:#e0c72f;stop-opacity:0"/><stop offset="0.5" style="stop-color:#e0c72f;stop-opacity:1"/><stop offset="1" style="stop-color:#e0c72f;stop-opacity:0"/></linearGradient><linearGradient id="_Linear6" x1="0" y1="0" x2="1" y2="-0.067460929793" gradientUnits="userSpaceOnUse" gradientTransform="matrix(16.200384,-30.248874,-28.059887,-17.464196,7.208379,31.925601)"><stop offset="0" style="stop-color:#e0c72f;stop-opacity:0"/><stop offset="0.5" style="stop-color:#e0c72f;stop-opacity:1"/><stop offset="1" style="stop-color:#e0c72f;stop-opacity:0"/></linearGradient><linearGradient id="_Linear7" x1="0" y1="0" x2="1" y2="0" gradientUnits="userSpaceOnUse" gradientTransform="matrix(81.313343,0,0,81.315409,9.343363,40.657737)"><stop offset="0" style="stop-color:#ffd700;stop-opacity:1"/><stop offset="1" style="stop-color:#a88600;stop-opacity:1"/></linearGradient></defs></svg>